<svg width="620" height="440" viewBox="0 0 620 440" fill="none" xmlns="http://www.w3.org/2000/svg">
  <ellipse cx="320" cy="390" rx="235" ry="24" fill="#064B5D" opacity=".2"/>
  <path d="M125 315c-24-78 2-165 73-190 62-22 130 18 137 95 7 72-41 137-108 148-48 8-90-13-102-53Z" fill="#D99259"/>
  <path d="M134 145c-7-65 16-112 55-123 22-6 33 16 31 47l-13 88-73-12Z" fill="#A86743"/>
  <path d="M283 111c15-60 51-91 78-77 21 11 15 45-5 75l-35 54-38-52Z" fill="#A86743"/>
  <path d="M167 211c-5-40 22-72 61-75 42-3 72 29 70 73-2 48-35 80-78 77-31-3-47-31-53-75Z" fill="#F8D8AC"/>
  <ellipse cx="201" cy="201" rx="10" ry="14" fill="#164451"/><ellipse cx="263" cy="197" rx="10" ry="14" fill="#164451"/>
  <path d="M218 241c10-9 23-8 31 1-6 17-25 18-31-1Z" fill="#164451"/><path d="M234 248c-8 15-21 20-32 14m32-14c8 15 21 19 31 13" stroke="#164451" stroke-width="4" stroke-linecap="round"/>
  <path d="M326 322c-2-89 45-157 103-157 55 0 95 49 94 118-1 69-46 109-106 109-51 0-90-25-91-70Z" fill="#F3F0E8"/>
  <path d="M334 215c-28-61-12-128 21-143 27-12 44 18 42 62l-2 82-61-1Z" fill="#C78B5E"/><path d="M486 215c33-59 19-126-14-145-26-14-44 16-44 59l4 84 54 2Z" fill="#C78B5E"/>
  <path d="M370 250c8-41 42-65 80-56 44 11 62 57 48 103-14 48-54 70-93 56-34-11-43-56-35-103Z" fill="#DDA878"/>
  <ellipse cx="406" cy="252" rx="10" ry="14" fill="#164451"/><ellipse cx="469" cy="255" rx="10" ry="14" fill="#164451"/>
  <path d="M421 294c12-11 27-10 38 1-6 19-31 20-38-1Z" fill="#164451"/><path d="M440 302v21m-1 0c-15 16-33 16-44 5m44-5c16 13 32 11 42-1" stroke="#164451" stroke-width="5" stroke-linecap="round"/>
</svg>
